<?xml version="1.0" encoding="utf-8"?>
<!-- Generator: Adobe Illustrator 19.2.1, SVG Export Plug-In . SVG Version: 6.00 Build 0)  -->
<svg version="1.1" id="Слой_1" xmlns="http://www.w3.org/2000/svg" xmlns:xlink="http://www.w3.org/1999/xlink" x="0px" y="0px"
	 viewBox="0 0 340.2 119.1" style="enable-background:new 0 0 340.2 119.1;" xml:space="preserve">
<style type="text/css">
	.st0{fill-rule:evenodd;clip-rule:evenodd;fill:none;stroke:#FFFFFF;stroke-width:3;}
	.st1{fill-rule:evenodd;clip-rule:evenodd;fill:#FFFFFF;}
	.st2{display:none;}
	.st3{display:inline;fill:#D60F2A;}
	.st4{display:inline;fill:#1D1D1B;}
	.st5{fill:#FFFFFF;}
	.st6{fill-rule:evenodd;clip-rule:evenodd;fill:none;}
	.st7{font-family:'MyriadPro-Regular';}
	.st8{font-size:93.6286px;}
</style>
<g>
	<g>
		<g>
			<rect x="4" y="3.4" class="st0" width="68.6" height="110.1"/>
			<path class="st1" d="M62.6,30c0,4.8-3.9,8.7-8.7,8.7c-4.8,0-8.7-3.9-8.7-8.7c0-4.8,3.9-8.7,8.7-8.7C58.7,21.3,62.6,25.2,62.6,30z
				"/>
		</g>
	</g>
	<g class="st2">
		<path class="st3" d="M141.6,99.7c0,6.8,0.1,12.7,0.4,17.9h-8.1l-0.5-10.7h-0.2c-2.4,5.3-7.7,12.2-16.6,12.2
			c-7.9,0-17.3-5.7-17.3-28.7V51.9h9.1v36.3c0,12.5,2.9,20.9,11.2,20.9c6.1,0,10.4-5.6,12-10.8c0.5-1.8,0.8-3.9,0.8-6.1V51.9h9.1
			V99.7z"/>
		<path class="st3" d="M156.4,117.6c0.2-4.5,0.4-11.1,0.4-17V21.3h9v41.2h0.2c3.2-7.3,9-12.1,17.1-12.1c12.4,0,21.3,13.6,21.2,33.5
			c0,23.5-11.3,35.1-22.5,35.1c-7.3,0-13.1-3.7-16.8-12.3h-0.3l-0.4,10.8H156.4z M165.8,91.3c0,1.5,0.2,3,0.4,4.3
			c1.8,8.3,7.1,14,13.7,14c9.5,0,15.3-10.2,15.3-25.2c0-13.2-5.2-24.4-14.9-24.4c-6.2,0-12,5.6-13.9,14.6c-0.2,1.4-0.5,3-0.5,4.9
			V91.3z"/>
		<path class="st4" d="M211.1,110.5c0-5,2.6-8.5,6.2-8.5c3.6,0,6.1,3.5,6.1,8.5c0,4.9-2.4,8.5-6.2,8.5
			C213.6,119.1,211.1,115.4,211.1,110.5z"/>
		<path class="st4" d="M276.8,99.7c0,6.8,0.1,12.7,0.4,17.9h-8.1l-0.5-10.7h-0.2c-2.4,5.3-7.7,12.2-16.6,12.2
			c-7.9,0-17.3-5.7-17.3-28.7V51.9h9.1v36.3c0,12.5,2.9,20.9,11.2,20.9c6.1,0,10.4-5.6,12-10.8c0.5-1.8,0.8-3.9,0.8-6.1V51.9h9.1
			V99.7z"/>
		<path class="st4" d="M319.7,117.6l-0.7-8.3h-0.3c-2.8,5.2-8.2,9.8-15.4,9.8c-10.2,0-15.4-9.4-15.4-18.8
			c0-15.9,10.8-24.5,30.2-24.4v-1.4c0-5.4-1.1-15.2-11.4-15.2c-4.7,0-9.5,1.9-13.1,4.9l-2.1-7.9c4.2-3.5,10.2-5.8,16.5-5.8
			c15.4,0,19.1,13.7,19.1,26.8v24.5c0,5.7,0.2,11.3,0.8,15.7H319.7z M318.4,84.1c-10-0.3-21.3,2-21.3,14.8c0,7.7,3.9,11.4,8.6,11.4
			c6.5,0,10.7-5.4,12.1-11c0.3-1.2,0.5-2.6,0.5-3.8V84.1z"/>
	</g>
</g>
<g>
	<g>
		<path class="st5" d="M141.5,61.8c0,5.2,0.1,9.8,0.4,13.7h-8.1l-0.5-8.2h-0.2c-2.4,4.1-7.7,9.4-16.6,9.4c-7.9,0-17.4-4.4-17.4-22.1
			V25.2h9.2v27.9c0,9.6,2.9,16,11.2,16c6.1,0,10.4-4.3,12.1-8.3c0.5-1.4,0.8-3,0.8-4.7V25.2h9.2V61.8z"/>
		<path class="st5" d="M155.6,75.5c0.2-3.4,0.4-8.5,0.4-13V1.7h9.1v31.6h0.2c3.2-5.6,9.1-9.3,17.2-9.3c12.5,0,21.3,10.4,21.2,25.7
			c0,18-11.3,26.9-22.6,26.9c-7.3,0-13.1-2.8-16.9-9.5h-0.3l-0.4,8.3H155.6z M165,55.4c0,1.1,0.2,2.3,0.4,3.3
			c1.8,6.3,7.1,10.7,13.7,10.7c9.6,0,15.3-7.8,15.3-19.4c0-10.1-5.2-18.7-15-18.7c-6.2,0-12.1,4.3-13.9,11.2c-0.2,1-0.5,2.3-0.5,3.7
			V55.4z"/>
		<path class="st5" d="M277.9,61.8c0,5.2,0.1,9.8,0.4,13.7h-8.1l-0.5-8.2h-0.2c-2.4,4.1-7.7,9.4-16.6,9.4c-7.9,0-17.4-4.4-17.4-22.1
			V25.2h9.2v27.9c0,9.6,2.9,16,11.2,16c6.1,0,10.4-4.3,12.1-8.3c0.5-1.4,0.8-3,0.8-4.7V25.2h9.2V61.8z"/>
		<path class="st5" d="M320.3,75.5l-0.7-6.3h-0.3c-2.8,4-8.2,7.5-15.4,7.5c-10.2,0-15.4-7.2-15.4-14.5c0-12.2,10.8-18.8,30.3-18.7
			v-1c0-4.2-1.1-11.7-11.4-11.7c-4.7,0-9.6,1.5-13.1,3.7l-2.1-6c4.2-2.7,10.2-4.5,16.5-4.5c15.4,0,19.1,10.5,19.1,20.6v18.8
			c0,4.4,0.2,8.6,0.8,12.1H320.3z M318.9,49.9c-10-0.2-21.3,1.6-21.3,11.3c0,5.9,4,8.7,8.6,8.7c6.6,0,10.7-4.2,12.2-8.4
			c0.3-0.9,0.5-2,0.5-2.9V49.9z"/>
	</g>
</g>
<g>
	<path class="st1" d="M301.7,115.5h-19.9v-0.1V97.3c0-4.8-0.1-9.7,6-10.4c0.8-0.1,1.7-0.1,2.7-0.1h11.1v3.8h-10.1
		c-2.4,0-3.9,0.2-4.7,1.2c-0.8,1.1-0.9,2.8-0.8,6.4v1H299v3.3h-12.9v1.8v7.5h15.7V115.5L301.7,115.5z"/>
	<polygon class="st1" points="213.4,111.7 213.4,108.2 213.4,101.4 213.4,99.8 213.4,95.2 213.4,93 213.4,86.8 217.6,86.8
		217.6,115.5 214.9,115.5 213.4,115.5 213.4,111.7 	"/>
	<path class="st1" d="M328.9,111.7v3.8h-7.5c-8.7,0-11.8-6.7-11.8-14.5c0-7.8,2.8-14.2,11.5-14.2h7.8v3.8h-7.5
		c-6.7,0-7.8,5.5-7.7,10.6c0,5.7,1.8,10.6,8,10.6H328.9L328.9,111.7z"/>
	<path class="st1" d="M116.4,101.1V86.8h4.4v14.8c0,1-0.1,4.1-0.2,4.9c-0.3,5.6-3.4,9-10,9h-9.2v-3.6h9c3.6,0.1,5.7-1.9,6-4.6
		c0.1-0.5,0.1-1.9,0.1-2.6h-7.1c-6.4,0-9.2-1.6-9.2-8.4v-9.6h4.4v10.4c0,4.1,2.1,3.9,5.5,3.9H116.4L116.4,101.1z"/>
	<path class="st1" d="M196.9,98.1c5.7,0,8.6,2.3,8.6,8.3c0,3.7-0.8,7.9-5.3,8.8c-0.7,0.2-2.2,0.2-4.4,0.2l-10.5,0V97.3
		c0-4.6,0-9.8,6-10.4c0.8-0.1,1.7-0.1,2.7-0.1H205v3.8h-10c-2.8,0-3.9,0.2-4.6,1.1c-0.8,0.9-1,2.7-0.8,6.4H196.9L196.9,98.1z
		 M189.5,112.1h6.9c4.2,0,5.2-1.9,5.2-5.8c0-3.4-1.7-5-5.2-5h-6.9V112.1L189.5,112.1z"/>
	<path class="st1" d="M225.5,115.5v-3.3h9.1c4.4,0,5.9-1.3,6-5.5c0-1.6-0.6-2.8-1.8-3.5c-0.9-0.6-2.6-0.9-4.8-0.9h-5.8V99h6.4
		c1.3,0,2.3-0.3,3-0.4c2.1-0.3,3.4-1.9,3.4-3.9c0-4-2.2-4.7-6-4.7h-9.5v-3.3h9.9c3.3,0,5.4,0.4,6.7,1c2.6,1.4,3.2,4.1,3.2,6.7
		c0,3.3-1.7,5-4.8,6.2c1.3,0.4,2.1,0.8,2.7,1.4c1.3,1.1,2,2.7,2,4.8c0,4-1.4,7.6-6,8.4c-1,0.2-2.7,0.3-4.9,0.3H225.5L225.5,115.5z"
		/>
	<path class="st1" d="M133,86.8V99h4.6c3.4,0,6.4-1.7,6.6-6.7v-5.5h4.3v4.7c0,4.7-1.6,6.4-3.5,8.3c2.8,0.9,4.2,3,4.2,7.4v8.3h-4.3
		v-9.2c0-4.1-2.5-3.9-5.9-4H133v13.1h-4.4V86.8H133L133,86.8z"/>
	<path class="st1" d="M269.6,99V86.8h4.4v28.7h-4.4v-13.1h-6.9c-2.4,0-3.9,0.4-4.5,1.2c-0.6,0.7-0.8,2.9-0.8,5.6v6.4h-4.4v-6.9V86.8
		h4.4V99v0.4c0.4-0.1,1-0.2,1.6-0.3c0.8-0.1,1.7-0.1,2.7-0.1L269.6,99L269.6,99L269.6,99z"/>
	<path class="st1" d="M161.3,104.4v11.1h-4.3V86.8h10.9c6.4,0,9.5,2.8,9.5,9.3c0,3.7-1.4,7.1-5.5,8c-1.2,0.3-2.8,0.4-4.8,0.4H161.3
		L161.3,104.4z M161.3,101.1h6.1c3.7,0,6-1.5,6-5.1c0-4.1-1.8-5.9-6.2-5.9h-5.9V101.1L161.3,101.1z"/>
</g>
<rect x="204.8" y="9.3" class="st6" width="19.9" height="67.5"/>
<text transform="matrix(1 0 0 1 205.0973 75.781)" class="st5 st7 st8">.</text>
</svg>
